<svg width="184" height="203" xmlns="http://www.w3.org/2000/svg" xmlns:xlink="http://www.w3.org/1999/xlink" xml:space="preserve" overflow="hidden"><g transform="translate(-205 -3070)"><g><g><g><path d="M110.531 23.9062 24.4687 23.9062C21.7968 23.9062 19.6875 26.1562 19.6875 28.6874L19.6875 86.7655C19.6875 89.4373 21.7968 91.5467 24.4687 91.5467L77.0623 91.5467 96.1873 111.094 96.1873 91.6873 110.531 91.6873C113.203 91.6873 115.312 89.4373 115.312 86.9061L115.312 28.8281C115.312 26.1562 113.203 23.9062 110.531 23.9062Z" stroke="#CC6600" stroke-width="3.67346" fill="#FFFFFF" transform="matrix(-1 0 0 1 340 3138)"/></g></g></g><g><g><g><path d="M140.006 30.2812 30.9937 30.2812C27.6093 30.2812 24.9375 33.1312 24.9375 36.3375L24.9375 109.903C24.9375 113.287 27.6093 115.959 30.9937 115.959L97.6124 115.959 121.837 140.719 121.837 116.137 140.006 116.137C143.39 116.137 146.062 113.287 146.062 110.081L146.062 36.5156C146.062 33.1312 143.39 30.2812 140.006 30.2812Z" fill="#CC6600" transform="matrix(1 0 0 1 218 3070)"/></g></g></g></g></svg>