<svg width="48" height="48" xmlns="http://www.w3.org/2000/svg" xmlns:xlink="http://www.w3.org/1999/xlink" xml:space="preserve" overflow="hidden"><g transform="translate(-63 -844)"><path d="M80.15 871.5 82.455 867.5C81.8553 867.203 81.2875 866.847 80.76 866.435L78.26 870.77C78.9184 870.932 79.5535 871.178 80.15 871.5Z" fill="#CC6600"/><path d="M89.605 880C89.5371 879.587 89.5021 879.169 89.5 878.75 89.5006 878.5 89.5139 878.249 89.54 878L84.46 878C84.4861 878.249 84.4994 878.5 84.5 878.75 84.4979 879.169 84.4629 879.587 84.395 880Z" fill="#CC6600"/><path d="M93.5 871.705C94.0734 871.353 94.688 871.072 95.33 870.87L92.765 866.425C92.2301 866.841 91.6537 867.202 91.045 867.5Z" fill="#CC6600"/><path d="M76.25 872.5C72.7982 872.5 70 875.298 70 878.75 70 882.202 72.7982 885 76.25 885 79.7018 885 82.5 882.202 82.5 878.75 82.5 875.298 79.7018 872.5 76.25 872.5ZM76.25 874.935C77.2193 874.932 78.0072 875.716 78.01 876.685 78.0127 877.654 77.2292 878.442 76.26 878.445 75.2907 878.448 74.5027 877.664 74.5 876.695 74.5 876.692 74.5 876.688 74.5 876.685 74.5027 875.72 75.2847 874.938 76.25 874.935ZM79.75 881.965 72.75 881.965 72.75 880.63C72.7567 880.356 72.8849 880.1 73.1 879.93 73.6189 879.557 74.1971 879.275 74.81 879.095 75.2799 878.958 75.7657 878.885 76.255 878.875 76.7448 878.878 77.2315 878.952 77.7 879.095 78.3202 879.256 78.9016 879.54 79.41 879.93 79.625 880.1 79.7533 880.356 79.76 880.63Z" fill="#CC6600"/><path d="M94.5 858.75C94.5 854.47 91.0302 851 86.75 851 82.4698 851 79 854.47 79 858.75 79 863.03 82.4698 866.5 86.75 866.5 91.0302 866.5 94.5 863.03 94.5 858.75ZM86.735 854C87.9362 854 88.91 854.974 88.91 856.175 88.91 857.376 87.9362 858.35 86.735 858.35 85.5338 858.35 84.56 857.376 84.56 856.175 84.5628 854.975 85.5349 854.003 86.735 854ZM91.075 862.72 82.39 862.72 82.39 861.05C82.3964 860.709 82.5562 860.39 82.825 860.18 83.4657 859.718 84.1811 859.369 84.94 859.15 85.5235 858.98 86.1273 858.889 86.735 858.88 87.3418 858.881 87.9449 858.972 88.525 859.15 89.2928 859.35 90.0134 859.7 90.645 860.18 90.9108 860.391 91.0684 860.71 91.075 861.05Z" fill="#CC6600"/><path d="M97.75 872.5C94.2982 872.5 91.5 875.298 91.5 878.75 91.5 882.202 94.2982 885 97.75 885 101.202 885 104 882.202 104 878.75 104 875.298 101.202 872.5 97.75 872.5ZM97.75 874.935C98.7193 874.932 99.5072 875.716 99.51 876.685 99.5127 877.654 98.7292 878.442 97.76 878.445 96.7907 878.448 96.0027 877.664 96 876.695 96 876.692 96 876.688 96 876.685 96.0027 875.72 96.7847 874.938 97.75 874.935ZM101.25 881.965 94.25 881.965 94.25 880.63C94.2567 880.356 94.3849 880.1 94.6 879.93 95.1189 879.557 95.6971 879.275 96.31 879.095 96.7799 878.958 97.2657 878.885 97.755 878.875 98.2448 878.878 98.7315 878.952 99.2 879.095 99.8201 879.256 100.402 879.54 100.91 879.93 101.125 880.1 101.253 880.356 101.26 880.63Z" fill="#CC6600"/></g></svg>