<svg width="46" height="46" xmlns="http://www.w3.org/2000/svg" xmlns:xlink="http://www.w3.org/1999/xlink" xml:space="preserve" overflow="hidden"><g transform="translate(-65 -993)"><path d="M80.2782 1008.72 100.676 1008.72 100.676 1006.5C100.676 1005.6 99.947 1004.87 99.0472 1004.87L86.839 1004.87 82.3621 1001.9C82.0944 1001.72 81.7852 1001.62 81.4666 1001.61L73.8167 1001.61C72.9169 1001.61 72.1875 1002.34 72.1875 1003.24L72.1875 1023.55 72.2038 1023.55 77.5944 1010.46C78.076 1009.41 79.1224 1008.73 80.2782 1008.72Z" fill="#CC6600"/><path d="M92.2929 1017.41C94.892 1014.81 98.9092 1014.28 102.097 1016.11L103.769 1012.51C103.879 1012.29 103.934 1012.04 103.932 1011.79 103.937 1010.95 103.307 1010.24 102.475 1010.16L80.2854 1010.16C79.6894 1010.16 79.1497 1010.51 78.9016 1011.05L73.4084 1024.4 90.0077 1024.4C89.6134 1021.84 90.4619 1019.25 92.2929 1017.41Z" fill="#CC6600"/><path d="M95.3423 1020.46C94.3111 1021.49 93.9561 1023.02 94.4266 1024.4L98.2345 1024.4 100.264 1020.04C98.7408 1018.97 96.6628 1019.14 95.3423 1020.46Z" fill="#CC6600"/><path d="M102.796 1018.43C100.179 1015.81 95.9338 1015.8 93.3132 1018.42 90.9146 1020.82 90.6807 1024.63 92.7682 1027.3L91.7174 1028.35C91.1414 1028.19 90.5259 1028.35 90.1031 1028.78L87.0536 1031.82C86.3987 1032.48 86.3987 1033.54 87.0536 1034.2 87.7086 1034.85 88.7705 1034.85 89.4255 1034.2L92.4749 1031.15C92.896 1030.72 93.0593 1030.11 92.9033 1029.53L93.9575 1028.48C96.8854 1030.75 101.097 1030.21 103.364 1027.28 105.433 1024.61 105.19 1020.81 102.796 1018.43ZM101.78 1026.9C99.7215 1028.96 96.3842 1028.96 94.3258 1026.9 92.2674 1024.84 92.2673 1021.5 94.3256 1019.45 96.384 1017.39 99.7213 1017.39 101.78 1019.45 101.78 1019.45 101.78 1019.45 101.78 1019.45 103.835 1021.5 103.835 1024.84 101.78 1026.9Z" fill="#CC6600"/></g></svg>