<svg width="39" height="39" xmlns="http://www.w3.org/2000/svg" xmlns:xlink="http://www.w3.org/1999/xlink" xml:space="preserve" overflow="hidden"><g transform="translate(-68 -957)"><path d="M97.6562 990.312 77.3438 990.312 77.3438 965.125 81.8125 965.125 81.8125 967.562 93.1875 967.562 93.1875 965.125 97.6562 965.125 97.6562 990.312ZM87.5 961.875C88.1906 961.875 88.7188 962.403 88.7188 963.094 88.7188 963.784 88.1906 964.312 87.5 964.312 86.8094 964.312 86.2812 963.784 86.2812 963.094 86.2812 962.769 86.4031 962.444 86.6469 962.241 86.85 961.997 87.175 961.875 87.5 961.875ZM98.4688 962.688 91.5625 962.688 91.5625 961.875C91.5625 960.981 90.8313 960.25 89.9375 960.25L85.0625 960.25C84.1687 960.25 83.4375 960.981 83.4375 961.875L83.4375 962.688 76.5312 962.688C75.6375 962.688 74.9062 963.419 74.9062 964.312L74.9062 991.125C74.9062 992.019 75.6375 992.75 76.5312 992.75L98.4688 992.75C99.3625 992.75 100.094 992.019 100.094 991.125L100.094 964.312C100.094 963.419 99.3625 962.688 98.4688 962.688Z" fill="#CC6600"/></g></svg>