<svg width="63" height="62" xmlns="http://www.w3.org/2000/svg" xmlns:xlink="http://www.w3.org/1999/xlink" xml:space="preserve" overflow="hidden"><g transform="translate(-338 -852)"><path d="M11.2375 10.9792C10.0176 10.9863 9.03456 11.9809 9.04167 13.2008 9.04167 13.2008 9.04167 13.2008 9.04167 13.2008L9.04167 39.8996 9.04167 39.8996C9.0345 41.1194 10.0176 42.1141 11.2374 42.1213 11.2374 42.1213 11.2375 42.1213 11.2375 42.1213L17.825 42.1213 17.825 51.0208 26.6083 42.1213 50.7625 42.1213C51.9823 42.1141 52.9654 41.1195 52.9583 39.8996 52.9583 39.8996 52.9583 39.8996 52.9583 39.8996L52.9583 13.2008 52.9583 13.2008C52.9655 11.981 51.9824 10.9863 50.7626 10.9792 50.7626 10.9792 50.7625 10.9792 50.7625 10.9792ZM38.1042 26.4792C38.1042 24.6958 39.5499 23.25 41.3333 23.25 43.1167 23.25 44.5625 24.6958 44.5625 26.4792 44.5625 28.2626 43.1167 29.7083 41.3333 29.7083 39.5499 29.7083 38.1042 28.2626 38.1042 26.4792ZM27.7708 26.4792C27.7708 24.6958 29.2166 23.25 31 23.25 32.7834 23.25 34.2292 24.6958 34.2292 26.4792 34.2292 28.2626 32.7834 29.7083 31 29.7083 29.2166 29.7083 27.7708 28.2626 27.7708 26.4792ZM17.4375 26.4792C17.4375 24.6958 18.8833 23.25 20.6667 23.25 22.4501 23.25 23.8958 24.6958 23.8958 26.4792 23.8958 28.2626 22.4501 29.7083 20.6667 29.7083 18.8833 29.7083 17.4375 28.2626 17.4375 26.4792Z" fill="#CC6600" transform="matrix(1.01613 0 0 1 338 852)"/></g></svg>