<svg width="34" height="34" xmlns="http://www.w3.org/2000/svg" xmlns:xlink="http://www.w3.org/1999/xlink" xml:space="preserve" overflow="hidden"><g transform="translate(-699 -265)"><path d="M716.004 265C706.612 265 699 272.612 699 281.996 699 291.379 706.612 298.991 716.004 298.991 725.397 298.991 733 291.379 733 281.996 733 272.612 725.388 265 716.004 265ZM717.697 294.206C717.218 294.623 716.651 294.844 716.013 294.844 715.375 294.844 714.79 294.631 714.312 294.206 713.825 293.772 713.585 293.196 713.585 292.434 713.585 291.769 713.816 291.202 714.276 290.741 714.746 290.272 715.313 290.05 715.987 290.05 716.66 290.05 717.227 290.272 717.715 290.741 718.184 291.202 718.424 291.769 718.424 292.434 718.424 293.178 718.184 293.772 717.706 294.197ZM718.689 275.979 717.883 285.194C717.794 286.284 717.608 287.126 717.316 287.711 717.032 288.305 716.563 288.579 715.898 288.579 715.234 288.579 714.755 288.296 714.498 287.738 714.241 287.162 714.046 286.302 713.94 285.132L713.346 276.183C713.231 274.437 713.178 273.188 713.178 272.417 713.178 271.389 713.452 270.582 713.993 269.998 714.542 269.413 715.251 269.129 716.137 269.129 717.201 269.129 717.927 269.501 718.291 270.237 718.645 270.99 718.831 272.053 718.831 273.445 718.831 274.278 718.787 275.102 718.698 275.952Z" fill="#882E74"/></g></svg>
