<svg width="34" height="34" xmlns="http://www.w3.org/2000/svg" xmlns:xlink="http://www.w3.org/1999/xlink" xml:space="preserve" overflow="hidden"><g transform="translate(-699 -564)"><path d="M733 580.996C733 590.388 725.388 597.991 716.004 597.991 706.621 597.991 699 590.388 699 580.996 699 571.603 706.612 564 716.004 564 725.397 564 733 571.612 733 580.996ZM725.548 580.978C725.548 579.79 724.591 578.833 723.403 578.833L717.972 578.833 717.972 573.402C717.972 572.214 717.015 571.257 715.827 571.257L715.783 571.257C714.596 571.257 713.639 572.214 713.639 573.402L713.639 578.833 708.207 578.833C707.019 578.833 706.062 579.79 706.062 580.978L706.062 581.022C706.062 582.21 707.019 583.167 708.207 583.167L713.639 583.167 713.639 588.598C713.639 589.786 714.596 590.743 715.783 590.743L715.827 590.743C717.015 590.743 717.972 589.786 717.972 588.598L717.972 583.167 723.403 583.167C724.591 583.167 725.548 582.21 725.548 581.022L725.548 580.978Z" fill="#FFFFFF"/></g></svg>