<svg width="34" height="34" xmlns="http://www.w3.org/2000/svg" xmlns:xlink="http://www.w3.org/1999/xlink" xml:space="preserve" overflow="hidden"><g transform="translate(-348 -265)"><path d="M365.004 265C355.612 265 348 272.612 348 281.996 348 291.379 355.612 298.991 365.004 298.991 374.397 298.991 382 291.379 382 281.996 382 272.612 374.388 265 365.004 265ZM375.434 277.919 365.793 290.99C365.403 291.512 364.809 291.849 364.163 291.902 364.118 291.902 364.065 291.902 364.021 291.902 363.418 291.92 362.833 291.69 362.399 291.273L354.991 284.202C354.088 283.334 354.052 281.898 354.921 280.994 355.789 280.09 357.224 280.055 358.128 280.923L363.675 286.213 371.783 275.217C372.527 274.207 373.945 273.994 374.955 274.738 375.966 275.483 376.178 276.9 375.434 277.911Z" fill="#882E74"/></g></svg>
